IKResults
version=1
nRows=10
nColumns=67
inDegrees=yes

Units are S.I. units (second, meters, Newtons, ...)
Angles are in degrees.

endheader
time	pelvis_tilt	pelvis_list	pelvis_rotation	pelvis_tx	pelvis_ty	pelvis_tz	hip_flexion_r	hip_adduction_r	hip_rotation_r	knee_angle_r	knee_rot_r	knee_adduc_r	ankle_angle_r	ankle_rot_r	ankle_add_r	subtalar_angle_r	mtp_angle_r	mtp_rot_r	mtp_add_r	hip_flexion_l	hip_adduction_l	hip_rotation_l	knee_angle_l	knee_rot_l	knee_adduc_l	ankle_angle_l	ankle_rot_l	ankle_add_l	subtalar_angle_l	mtp_angle_l	mtp_rot_l	mtp_add_l	lumbar_extension	lumbar_bending	lumbar_rotation	neck_flexion	neck_lateral_bending	neck_rotation	arm_flex_r	arm_add_r	arm_rot_r	elbow_flex_r	elbow_rot_r	elbow_add_r	pro_sup_r	wrist_flex_r	wrist_adduc_r	wrist_rot_r	wrist_dev_r	hand_finger_flex_r	hand_finger_adduc_r	hand_finger_rot_r	arm_flex_l	arm_add_l	arm_rot_l	elbow_flex_l	elbow_rot_l	elbow_add_l	pro_sup_l	wrist_flex_l	wrist_adduc_l	wrist_rot_l	wrist_dev_l	hand_finger_flex_l	hand_finger_adduc_l	hand_finger_rot_l
      0.62500000	     11.90042784	      4.63236507	      1.44101192	     -1.11268427	      0.76529227	      0.62184297	    -14.74228102	      1.05201416	      4.84614215	     -7.18355398	     -5.00000000	     -1.93432587	      7.59895176	     -0.89244551	      4.99231748	    -10.23221780	     11.84235644	     -2.00000000	     -0.23575181	     16.74482986	      0.41521158	     -0.79445081	    -48.05772938	      5.00000000	     -4.09810675	      4.58024077	      5.00000000	      4.55952398	      8.90957315	     37.73067406	      2.00000000	     -2.00000000	    -26.94997494	     -4.31393933	      6.09105419	      0.00000000	      0.00000000	      0.00000000	      0.00000000	      0.00000000	      0.00000000	      0.00000000	      0.00000000	      0.00000000	     -0.00042092	      0.00000000	      0.00000000	      0.00000000	      0.00000000	      0.00000000	      0.00000000	      0.00000000	      0.00000000	      0.00000000	      0.00000000	      0.00000000	      0.00000000	      0.00000000	      0.00000000	      0.00000000	      0.00000000	      0.00000000	      0.00000000	      0.00000000	      0.00000000	      0.00000000
      0.63000000	     12.64543768	      4.89662328	      1.09882325	     -1.10672770	      0.76553847	      0.62130737	    -16.22960532	      0.57392394	      4.62969071	     -6.86027121	     -5.00000000	     -1.80255508	      8.11874741	     -0.44406971	      4.69607531	    -10.05505195	     11.51368800	     -2.00000000	     -0.34839458	     16.07506444	      0.85177183	     -0.57621301	    -45.92023063	      5.00000000	     -3.88421616	      3.69522365	      5.00000000	      2.41571294	      6.67287096	     37.33353316	      2.00000000	     -2.00000000	    -27.87811094	     -4.77158355	      6.38465782	      0.00000000	      0.00000000	      0.00000000	      0.00000000	      0.00000000	      0.00000000	      0.00000000	      0.00000000	      0.00000000	     -0.00042092	      0.00000000	      0.00000000	      0.00000000	      0.00000000	      0.00000000	      0.00000000	      0.00000000	      0.00000000	      0.00000000	      0.00000000	      0.00000000	      0.00000000	      0.00000000	      0.00000000	      0.00000000	      0.00000000	      0.00000000	      0.00000000	      0.00000000	      0.00000000	      0.00000000
      0.63500000	     12.53297125	      4.70553297	      1.11001203	     -1.10103406	      0.76464478	      0.62061537	    -16.58985253	      0.74552193	      4.64045343	     -6.87344172	     -5.00000000	     -1.81620340	      8.25556285	     -0.44206621	      4.70357486	    -10.06149042	     11.50642344	     -2.00000000	     -0.35020324	     16.56239893	      0.78672852	     -0.35202571	    -44.14308769	      5.00000000	     -3.52474376	      3.96353337	      5.00000000	      2.33828259	      6.48583103	     37.32049806	      2.00000000	     -2.00000000	    -27.87158471	     -4.57920251	      6.60282539	      0.00000000	      0.00000000	      0.00000000	      0.00000000	      0.00000000	      0.00000000	      0.00000000	      0.00000000	      0.00000000	     -0.00042092	      0.00000000	      0.00000000	      0.00000000	      0.00000000	      0.00000000	      0.00000000	      0.00000000	      0.00000000	      0.00000000	      0.00000000	      0.00000000	      0.00000000	      0.00000000	      0.00000000	      0.00000000	      0.00000000	      0.00000000	      0.00000000	      0.00000000	      0.00000000	      0.00000000
      0.64000000	     12.58996108	      4.70837828	      0.74537100	     -1.09502498	      0.76386971	      0.62005601	    -17.20661215	      0.54395242	      4.66962737	     -6.75950469	     -5.00000000	     -1.72993491	      8.92278549	     -0.29812230	      4.71552541	    -10.00766821	     11.42713804	     -2.00000000	     -0.37510025	     16.65515122	      0.98167217	     -0.63551041	    -42.09702873	      5.00000000	     -2.89721301	      4.35201555	      5.00000000	      2.06489451	      4.83795290	     37.18834575	      2.00000000	     -1.99868415	    -27.97195106	     -4.78368700	      7.24663563	      0.00000000	      0.00000000	      0.00000000	      0.00000000	      0.00000000	      0.00000000	      0.00000000	      0.00000000	      0.00000000	     -0.00042092	      0.00000000	      0.00000000	      0.00000000	      0.00000000	      0.00000000	      0.00000000	      0.00000000	      0.00000000	      0.00000000	      0.00000000	      0.00000000	      0.00000000	      0.00000000	      0.00000000	      0.00000000	      0.00000000	      0.00000000	      0.00000000	      0.00000000	      0.00000000	      0.00000000
      0.64500000	     12.48112078	      4.51316702	      0.78664640	     -1.08925234	      0.76282041	      0.61936231	    -17.61086444	      0.72706666	      4.73599048	     -6.71652864	     -5.00000000	     -1.72362398	      9.07783718	     -0.27639117	      4.72908067	    -10.00135337	     11.42172907	     -2.00000000	     -0.37630809	     17.01769268	      0.87648443	     -0.34086110	    -40.14535959	      5.00000000	     -2.58813258	      4.46285913	      5.00000000	      1.98512599	      4.74051955	     37.16929320	      2.00000000	     -1.99659013	    -27.97391126	     -4.60473402	      7.48081774	      0.00000000	      0.00000000	      0.00000000	      0.00000000	      0.00000000	      0.00000000	      0.00000000	      0.00000000	      0.00000000	     -0.00042092	      0.00000000	      0.00000000	      0.00000000	      0.00000000	      0.00000000	      0.00000000	      0.00000000	      0.00000000	      0.00000000	      0.00000000	      0.00000000	      0.00000000	      0.00000000	      0.00000000	      0.00000000	      0.00000000	      0.00000000	      0.00000000	      0.00000000	      0.00000000	      0.00000000
      0.65000000	     13.03208589	      4.68165465	      0.20067090	     -1.08323414	      0.76247286	      0.61893356	    -18.77113428	      0.27763438	      4.99086430	     -6.57503701	     -5.00000000	     -1.62726854	      9.90067968	     -0.07094247	      4.71923823	     -9.92184676	     11.30129965	     -2.00000000	     -0.41409080	     16.31127245	      1.20470220	     -0.58588581	    -37.67544206	      5.00000000	     -2.05631453	      4.23672284	      5.00000000	      1.52215727	      2.81290364	     36.91387182	      2.00000000	     -1.97185542	    -28.67014472	     -5.02689367	      8.22472322	      0.00000000	      0.00000000	      0.00000000	      0.00000000	      0.00000000	      0.00000000	      0.00000000	      0.00000000	      0.00000000	     -0.00042092	      0.00000000	      0.00000000	      0.00000000	      0.00000000	      0.00000000	      0.00000000	      0.00000000	      0.00000000	      0.00000000	      0.00000000	      0.00000000	      0.00000000	      0.00000000	      0.00000000	      0.00000000	      0.00000000	      0.00000000	      0.00000000	      0.00000000	      0.00000000	      0.00000000
      0.65500000	     12.91043441	      4.42741654	      0.25520882	     -1.07731399	      0.76125902	      0.61829137	    -19.17400154	      0.50929878	      4.99209480	     -6.53441629	     -5.00000000	     -1.57142600	     10.04923379	     -0.08980216	      4.72888386	     -9.94094718	     11.29471552	     -2.00000000	     -0.41539980	     16.57792466	      1.00243122	     -0.29797258	    -35.60939156	      5.00000000	     -1.74309158	      4.39813997	      5.00000000	      1.41721383	      2.74573818	     36.89129244	      2.00000000	     -1.96825129	    -28.61310553	     -4.82456102	      8.40693287	      0.00000000	      0.00000000	      0.00000000	      0.00000000	      0.00000000	      0.00000000	      0.00000000	      0.00000000	      0.00000000	     -0.00042092	      0.00000000	      0.00000000	      0.00000000	      0.00000000	      0.00000000	      0.00000000	      0.00000000	      0.00000000	      0.00000000	      0.00000000	      0.00000000	      0.00000000	      0.00000000	      0.00000000	      0.00000000	      0.00000000	      0.00000000	      0.00000000	      0.00000000	      0.00000000	      0.00000000
      0.66000000	     12.81668199	      4.16770893	      0.22977357	     -1.07126490	      0.76000520	      0.61760322	    -19.62091711	      0.72799667	      4.99282144	     -6.48060006	     -5.00000000	     -1.55696024	     10.29127140	     -0.10924404	      4.74948354	     -9.96511172	     11.28922617	     -2.00000000	     -0.41583338	     16.72990208	      0.84702255	     -0.02793639	    -33.44475856	      5.00000000	     -1.35216830	      4.58224336	      5.00000000	      1.34304317	      2.54860892	     36.86247194	      2.00000000	     -1.96324842	    -28.55760056	     -4.62243042	      8.66583633	      0.00000000	      0.00000000	      0.00000000	      0.00000000	      0.00000000	      0.00000000	      0.00000000	      0.00000000	      0.00000000	     -0.00042092	      0.00000000	      0.00000000	      0.00000000	      0.00000000	      0.00000000	      0.00000000	      0.00000000	      0.00000000	      0.00000000	      0.00000000	      0.00000000	      0.00000000	      0.00000000	      0.00000000	      0.00000000	      0.00000000	      0.00000000	      0.00000000	      0.00000000	      0.00000000	      0.00000000
      0.66500000	     13.72644445	      4.33284198	     -0.49972893	     -1.06506965	      0.75983017	      0.61733001	    -21.16723813	      0.19912756	      5.17600472	     -6.35576200	     -5.00000000	     -1.41903053	     11.35822063	      0.17230295	      4.77770423	     -9.85205133	     11.18376003	     -2.00000000	     -0.44595077	     15.36451413	      1.07972989	     -0.40867194	    -30.64285753	      5.00000000	     -0.87753233	      4.26457918	      5.00000000	      1.11697831	      0.61495026	     36.56071156	      2.00000000	     -1.90738700	    -29.61269436	     -5.15433055	      9.43861785	      0.00000000	      0.00000000	      0.00000000	      0.00000000	      0.00000000	      0.00000000	      0.00000000	      0.00000000	      0.00000000	     -0.00042092	      0.00000000	      0.00000000	      0.00000000	      0.00000000	      0.00000000	      0.00000000	      0.00000000	      0.00000000	      0.00000000	      0.00000000	      0.00000000	      0.00000000	      0.00000000	      0.00000000	      0.00000000	      0.00000000	      0.00000000	      0.00000000	      0.00000000	      0.00000000	      0.00000000
      0.67000000	     13.58771470	      4.07158173	     -0.43427684	     -1.05901120	      0.75843794	      0.61656904	    -21.54839881	      0.44242998	      5.19819488	     -6.34945449	     -5.00000000	     -1.40073363	     11.48009856	      0.17532309	      4.77938596	     -9.85888845	     11.17538582	     -2.00000000	     -0.44788314	     15.48876894	      0.89524422	     -0.02224663	    -28.41908887	      5.00000000	     -0.54495877	      4.43042126	      5.00000000	      0.99758926	      0.63205944	     36.53224020	      2.00000000	     -1.90066959	    -29.53972259	     -4.91651388	      9.58350940	      0.00000000	      0.00000000	      0.00000000	      0.00000000	      0.00000000	      0.00000000	      0.00000000	      0.00000000	      0.00000000	     -0.00042092	      0.00000000	      0.00000000	      0.00000000	      0.00000000	      0.00000000	      0.00000000	      0.00000000	      0.00000000	      0.00000000	      0.00000000	      0.00000000	      0.00000000	      0.00000000	      0.00000000	      0.00000000	      0.00000000	      0.00000000	      0.00000000	      0.00000000	      0.00000000	      0.00000000
